<svg width="220" height="80" viewBox="0 0 220 80" fill="none" xmlns="http://www.w3.org/2000/svg">
  <!-- Background -->
  <rect width="220" height="80" fill="#1b4332"/>
  
  <!-- Plant Icon -->
  <g transform="translate(15, 15)">
    <!-- Bottom curved lines (furrows/roots) - 3 parallel curved lines -->
    <path
      d="M8 38 Q12 30, 16 33 Q20 28, 24 31 Q28 26, 32 29 Q36 24, 40 27"
      stroke="#a2c95e"
      stroke-width="2.5"
      fill="none"
      stroke-linecap="round"
      opacity="0.9"
    />
    <path
      d="M10 42 Q14 34, 18 37 Q22 32, 26 35 Q30 30, 34 33 Q38 28, 42 31"
      stroke="#a2c95e"
      stroke-width="2.5"
      fill="none"
      stroke-linecap="round"
      opacity="0.75"
    />
    <path
      d="M12 46 Q16 38, 20 41 Q24 36, 28 39 Q32 34, 36 37 Q40 32, 44 35"
      stroke="#a2c95e"
      stroke-width="2.5"
      fill="none"
      stroke-linecap="round"
      opacity="0.6"
    />
    
    <!-- Top leaves/sprouts - forming a V shape from center -->
    <path
      d="M25 12 Q18 4, 12 8 Q18 14, 25 22"
      fill="#a2c95e"
      opacity="0.95"
    />
    <path
      d="M25 12 Q32 4, 38 8 Q32 14, 25 22"
      fill="#a2c95e"
      opacity="0.95"
    />
    <!-- Leaf outlines for definition -->
    <path
      d="M25 12 Q18 4, 12 8"
      stroke="#a2c95e"
      stroke-width="1.5"
      fill="none"
      stroke-linecap="round"
    />
    <path
      d="M25 12 Q32 4, 38 8"
      stroke="#a2c95e"
      stroke-width="1.5"
      fill="none"
      stroke-linecap="round"
    />
    <path
      d="M12 8 Q18 14, 25 22"
      stroke="#a2c95e"
      stroke-width="1.5"
      fill="none"
      stroke-linecap="round"
    />
    <path
      d="M38 8 Q32 14, 25 22"
      stroke="#a2c95e"
      stroke-width="1.5"
      fill="none"
      stroke-linecap="round"
    />
  </g>
  
  <!-- Text: INBAT -->
  <text x="70" y="40" font-family="Arial, sans-serif" font-size="32" font-weight="bold" fill="#fffdfe">INBAT</text>
  
  <!-- Tagline: ADVANCING AGRICULTURE -->
  <text x="70" y="58" font-family="Arial, sans-serif" font-size="11" fill="#fffdfe" opacity="0.9">ADVANCING AGRICULTURE</text>
</svg>
